<?xml version="1.0" standalone="no"?><!DOCTYPE svg PUBLIC "-//W3C//DTD SVG 1.1//EN" "http://www.w3.org/Graphics/SVG/1.1/DTD/svg11.dtd"><svg t="1609315991816" class="icon" viewBox="0 0 1024 1024" version="1.1" xmlns="http://www.w3.org/2000/svg" p-id="1155" xmlns:xlink="http://www.w3.org/1999/xlink" width="200" height="200"><defs><style type="text/css"></style></defs><path d="M949.99814 0.11907H73.549395A73.037395 73.037395 0 0 0 0.512 73.156465v876.448744a73.037395 73.037395 0 0 0 73.037395 73.037396h876.448745a73.037395 73.037395 0 0 0 73.037395-73.037396V73.144558A73.025488 73.025488 0 0 0 949.99814 0.11907zM73.549395 73.144558h876.448745v219.112186H73.549395V73.144558z m876.448745 876.448744H73.549395V365.29414h876.448745v584.299162z m0 0" p-id="1156"></path><path d="M219.624186 584.418233h584.287256a36.518698 36.518698 0 0 0 0-73.037396H219.624186a36.518698 36.518698 0 0 0 0 73.037396z m0 182.581581h584.287256a36.518698 36.518698 0 0 0 0-73.037395H219.624186a36.518698 36.518698 0 0 0 0 73.037395z m584.287256-620.817861h-73.037395a36.518698 36.518698 0 0 0 0 73.037396h73.037395a36.518698 36.518698 0 0 0 0-73.037396z m0 0" p-id="1157"></path></svg>