<?xml version="1.0" standalone="no"?><!DOCTYPE svg PUBLIC "-//W3C//DTD SVG 1.1//EN" "http://www.w3.org/Graphics/SVG/1.1/DTD/svg11.dtd"><svg t="1592875862739" class="icon" viewBox="0 0 1024 1024" version="1.1" xmlns="http://www.w3.org/2000/svg" p-id="2912" xmlns:xlink="http://www.w3.org/1999/xlink" width="200" height="200"><defs><style type="text/css"></style></defs><path d="M910.222222 1024H113.777778a113.777778 113.777778 0 0 1-113.777778-113.777778V113.777778a113.777778 113.777778 0 0 1 113.777778-113.777778h796.444444a113.777778 113.777778 0 0 1 113.777778 113.777778v796.444444a113.777778 113.777778 0 0 1-113.777778 113.777778z m-400.611555-175.331556a5.176889 5.176889 0 0 0 5.12 4.323556h50.289777a5.233778 5.233778 0 0 0 5.063112-4.323556l13.824-79.758222a5.632 5.632 0 0 0-0.113778-2.389333l-15.416889-57.059556a5.12 5.12 0 0 0-5.688889-3.811555l-7.452444 1.080889c-4.778667 0.739556-7.168 1.194667-14.848 1.194666-7.736889 0-10.24-0.455111-15.075556-1.194666l-7.509333-1.194667a5.290667 5.290667 0 0 0-5.745778 3.811556l-16.327111 58.595555a5.290667 5.290667 0 0 0-0.056889 2.503111l13.937778 78.222222zM170.666667 780.174222v57.116445c0 8.817778 6.940444 15.928889 15.530666 15.928889h283.932445l-75.207111-141.710223 37.432889-83.626666-0.910223-0.056889h-5.859555a19.228444 19.228444 0 0 0-3.584 0.398222c-91.761778 22.357333-177.038222 70.940444-246.613334 140.515556a15.985778 15.985778 0 0 0-4.721777 11.434666z m527.473777-425.585778a195.697778 195.697778 0 0 0 8.931556-58.766222c0-100.522667-74.638222-182.044444-166.741333-182.044444-92.16 0-166.741333 81.521778-166.741334 182.044444 0 20.536889 3.185778 40.334222 8.988445 58.766222a31.288889 31.288889 0 0 0-16.952889 28.444445c0 17.237333 12.8 31.175111 28.558222 31.175111h0.512c3.299556 45.454222 24.007111 90.851556 54.897778 122.481778v50.688c0 1.706667 0.341333 3.299556 1.137778 4.835555 4.152889 8.362667 41.642667 81.294222 88.860444 82.318223h0.910222c47.047111 0 84.195556-73.955556 88.291556-82.375112a11.662222 11.662222 0 0 0 1.080889-4.835555v-49.379556a199.68 199.68 0 0 0 56.149333-123.733333h0.455111c15.815111 0 28.615111-13.937778 28.615111-31.175111a31.232 31.232 0 0 0-16.952889-28.444445zM910.222222 780.288a16.327111 16.327111 0 0 0-4.721778-11.548444c-68.096-68.039111-151.210667-116.053333-240.64-138.979556a15.075556 15.075556 0 0 0-7.395555-1.934222h-8.135111l-0.625778 0.056889 36.750222 81.92L608.824889 853.333333h285.866667a15.758222 15.758222 0 0 0 15.530666-15.985777v-57.059556z" p-id="2913"></path></svg>